<svg width="760" height="220" viewBox="0 0 760 220" fill="none" xmlns="http://www.w3.org/2000/svg">
  <defs>
    <linearGradient id="caaiWordmarkGradient" x1="0" y1="0" x2="280" y2="180" gradientUnits="userSpaceOnUse">
      <stop offset="0" stop-color="#63E8FF"/>
      <stop offset="0.55" stop-color="#1DB8FF"/>
      <stop offset="1" stop-color="#225CFF"/>
    </linearGradient>
  </defs>

  <g transform="translate(0 26)">
    <g transform="translate(0 12)">
      <path
        d="M84 28C76.7 20.7 67.3 16.5 55.8 16.5C33.9 16.5 18 35.2 18 60C18 84.8 33.9 103.5 55.8 103.5C67.3 103.5 76.7 99.3 84 92"
        stroke="url(#caaiWordmarkGradient)"
        stroke-width="11"
        stroke-linecap="round"
        stroke-linejoin="round"
      />
      <path d="M38 60H73" stroke="url(#caaiWordmarkGradient)" stroke-width="8" stroke-linecap="round"/>
      <path d="M60 46L78 60L60 74" stroke="url(#caaiWordmarkGradient)" stroke-width="8" stroke-linecap="round" stroke-linejoin="round"/>
      <path d="M30 37L46 52" stroke="url(#caaiWordmarkGradient)" stroke-width="4" stroke-linecap="round"/>
      <path d="M28 60H46" stroke="url(#caaiWordmarkGradient)" stroke-width="4" stroke-linecap="round"/>
      <path d="M30 83L46 68" stroke="url(#caaiWordmarkGradient)" stroke-width="4" stroke-linecap="round"/>
      <path d="M46 52L55 60" stroke="url(#caaiWordmarkGradient)" stroke-width="4" stroke-linecap="round"/>
      <path d="M46 68L55 60" stroke="url(#caaiWordmarkGradient)" stroke-width="4" stroke-linecap="round"/>
      <circle cx="24" cy="37" r="5.5" fill="url(#caaiWordmarkGradient)"/>
      <circle cx="22" cy="60" r="6.5" fill="url(#caaiWordmarkGradient)"/>
      <circle cx="24" cy="83" r="5.5" fill="url(#caaiWordmarkGradient)"/>
      <circle cx="48" cy="52" r="5" fill="#C8FBFF"/>
      <circle cx="48" cy="68" r="5" fill="#C8FBFF"/>
      <circle cx="56" cy="60" r="6" fill="#EAF8FF"/>
    </g>

    <text x="128" y="92" fill="#F4FBFF" font-family="Sora, IBM Plex Sans, Segoe UI, sans-serif" font-size="92" font-weight="700" letter-spacing="-0.05em">CAAi</text>
    <text x="132" y="138" fill="#8EA6BC" font-family="IBM Plex Sans, Segoe UI, sans-serif" font-size="32" font-weight="500" letter-spacing="0.08em">CATALYST APPLIED AI</text>
  </g>
</svg>
