<svg width="120" height="120" viewBox="0 0 120 120" fill="none" xmlns="http://www.w3.org/2000/svg">
  <defs>
    <linearGradient id="caaiMarkStroke" x1="20" y1="24" x2="92" y2="96" gradientUnits="userSpaceOnUse">
      <stop offset="0" stop-color="#63E8FF"/>
      <stop offset="0.5" stop-color="#1DB8FF"/>
      <stop offset="1" stop-color="#225CFF"/>
    </linearGradient>
    <linearGradient id="caaiMarkFill" x1="28" y1="30" x2="88" y2="90" gradientUnits="userSpaceOnUse">
      <stop offset="0" stop-color="#63E8FF"/>
      <stop offset="1" stop-color="#225CFF"/>
    </linearGradient>
    <filter id="caaiGlow" x="0" y="0" width="120" height="120" filterUnits="userSpaceOnUse" color-interpolation-filters="sRGB">
      <feGaussianBlur stdDeviation="6" result="blur"/>
      <feColorMatrix in="blur" type="matrix" values="1 0 0 0 0  0 0.92 0 0 0  0 0.98 1 0 0  0 0 0 0.35 0"/>
      <feBlend in="SourceGraphic" mode="screen"/>
    </filter>
  </defs>

  <g filter="url(#caaiGlow)">
    <path
      d="M84 28C76.7 20.7 67.3 16.5 55.8 16.5C33.9 16.5 18 35.2 18 60C18 84.8 33.9 103.5 55.8 103.5C67.3 103.5 76.7 99.3 84 92"
      stroke="url(#caaiMarkStroke)"
      stroke-width="11"
      stroke-linecap="round"
      stroke-linejoin="round"
    />
    <path d="M38 60H73" stroke="url(#caaiMarkStroke)" stroke-width="8" stroke-linecap="round"/>
    <path d="M60 46L78 60L60 74" stroke="url(#caaiMarkStroke)" stroke-width="8" stroke-linecap="round" stroke-linejoin="round"/>

    <path d="M30 37L46 52" stroke="url(#caaiMarkStroke)" stroke-width="4" stroke-linecap="round"/>
    <path d="M28 60H46" stroke="url(#caaiMarkStroke)" stroke-width="4" stroke-linecap="round"/>
    <path d="M30 83L46 68" stroke="url(#caaiMarkStroke)" stroke-width="4" stroke-linecap="round"/>
    <path d="M46 52L55 60" stroke="url(#caaiMarkStroke)" stroke-width="4" stroke-linecap="round"/>
    <path d="M46 68L55 60" stroke="url(#caaiMarkStroke)" stroke-width="4" stroke-linecap="round"/>

    <circle cx="24" cy="37" r="5.5" fill="url(#caaiMarkFill)"/>
    <circle cx="22" cy="60" r="6.5" fill="url(#caaiMarkFill)"/>
    <circle cx="24" cy="83" r="5.5" fill="url(#caaiMarkFill)"/>
    <circle cx="48" cy="52" r="5" fill="#C8FBFF"/>
    <circle cx="48" cy="68" r="5" fill="#C8FBFF"/>
    <circle cx="56" cy="60" r="6" fill="#EAF8FF"/>
  </g>
</svg>
